# xmcd
#
# Track frame offsets:
#	183
#	13805
#	25533
#	37948
#	48793
#	61295
#	75450
#	86405
#	102360
#	115583
#	126248
#	139280
#	153475
#	166508
#	178438
#	189225
#	199435
#	213603
#	224615
#	236708
#
# Disc length: 3325
#
# Revision: 3
# Processed by: cddbd v1.5.1PL0 Copyright (c) Steve Scherf et al.
# Submitted via: CDex 1.30Release
# Normalized: r1:TDELIM( - );r2:TSWAP
#
DISCID=120cfb14
DTITLE=Various Artist - 1970 Country Hits
DYEAR=1900
DGENRE=Country
TTITLE0=Jack Greene - Statue Of A Fool
TTITLE1=Tommy Cash - Six White Horses
TTITLE2=Jeannie C Riley - Good Enough To Be Your Wife
TTITLE3=George Jones - Tell Me Why My Lying Eyes Are Wrong
TTITLE4=Skeeter Davis - Bus Fare To Kentucky
TTITLE5=Sammi Smith - He's Everywhere
TTITLE6=Red Sovine - I Know You're Married But I Love You Still
TTITLE7=Narvel Felts - You Gave Me A Mountain
TTITLE8=B J Thomas - No Love At All
TTITLE9=Ronnie Milsap - Win My Love And Break My Heart
TTITLE10=Johnny Paycheck - Don't Take Her She's All I Got
TTITLE11=Red Simpson - I'm A Truck
TTITLE12=Claude King - All For The Love Of A Girl
TTITLE13=Hank Thompson - I've Come Awful Close
TTITLE14=Johnny Bush - Warmth Of The Wine
TTITLE15=Bobby G Rice - Sugar Shack
TTITLE16=The Kendalls - Leavin' On A Jet Plane
TTITLE17=Sandy Posey - Bring Him Safely Home To Me
TTITLE18=Jerry Wallace - Shutters and Boards
TTITLE19=Jack Blanchard and Misty Morgan - Tennessee Birdwalk
EXTD=ID3G:   2
EXTT0=
EXTT1=
EXTT2=
EXTT3=
EXTT4=
EXTT5=
EXTT6=
EXTT7=
EXTT8=
EXTT9=
EXTT10=
EXTT11=
EXTT12=
EXTT13=
EXTT14=
EXTT15=
EXTT16=
EXTT17=
EXTT18=
EXTT19=
PLAYORDER=
